<svg xmlns="http://www.w3.org/2000/svg" xmlns:xlink="http://www.w3.org/1999/xlink" width="1080" zoomAndPan="magnify" viewBox="0 0 810 404.99999" height="540" preserveAspectRatio="xMidYMid meet" version="1.0"><defs><g/></defs><g fill="#db0404" fill-opacity="1"><g transform="translate(40.500007, 270.849691)"><g><path d="M 0.75 0 L 0.75 -1.875 L 8.453125 -1.875 C 11.960938 -1.875 14.75 -2.875 16.8125 -4.875 C 18.882812 -6.882812 20.863281 -10.460938 22.75 -15.609375 L 66.171875 -134.21875 L 84.59375 -134.21875 L 126.703125 -15.421875 C 128.578125 -10.273438 130.546875 -6.726562 132.609375 -4.78125 C 134.679688 -2.84375 137.472656 -1.875 140.984375 -1.875 L 141.546875 -1.875 L 141.546875 0 L 79.515625 0 L 79.515625 -1.875 L 89.671875 -1.875 C 95.429688 -1.875 98.3125 -3.878906 98.3125 -7.890625 C 98.3125 -9.898438 97.625 -13.097656 96.25 -17.484375 L 85.53125 -49.0625 L 37.03125 -49.0625 L 26.3125 -19.921875 C 25.3125 -17.421875 24.5625 -15.195312 24.0625 -13.25 C 23.5625 -11.3125 23.3125 -9.648438 23.3125 -8.265625 C 23.3125 -5.890625 24.0625 -4.226562 25.5625 -3.28125 C 27.070312 -2.34375 29.390625 -1.875 32.515625 -1.875 L 45.875 -1.875 L 45.875 0 Z M 37.78125 -50.9375 L 84.96875 -50.9375 L 73.3125 -86.09375 C 72.3125 -89.101562 71.148438 -92.707031 69.828125 -96.90625 C 68.515625 -101.101562 67.265625 -105.363281 66.078125 -109.6875 C 64.890625 -114.007812 63.914062 -117.738281 63.15625 -120.875 C 62.15625 -117.863281 60.929688 -114.320312 59.484375 -110.25 C 58.046875 -106.175781 56.578125 -102.101562 55.078125 -98.03125 C 53.578125 -93.957031 52.257812 -90.414062 51.125 -87.40625 Z M 37.78125 -50.9375 "/></g></g></g><g fill="#db0404" fill-opacity="1"><g transform="translate(182.051226, 270.849691)"><g><path d="M 5.265625 0 L 5.265625 -1.875 L 13.15625 -1.875 C 15.914062 -1.875 18.203125 -2.5625 20.015625 -3.9375 C 21.835938 -5.320312 22.75 -8.707031 22.75 -14.09375 L 22.75 -120.125 C 22.75 -125.507812 21.835938 -128.890625 20.015625 -130.265625 C 18.203125 -131.648438 15.914062 -132.34375 13.15625 -132.34375 L 5.265625 -132.34375 L 5.265625 -134.21875 L 70.125 -134.21875 L 70.125 -132.34375 L 62.21875 -132.34375 C 59.59375 -132.34375 57.335938 -131.679688 55.453125 -130.359375 C 53.578125 -129.046875 52.640625 -125.882812 52.640625 -120.875 L 52.640625 -1.875 L 80.265625 -1.875 C 91.671875 -1.875 99.972656 -4.191406 105.171875 -8.828125 C 110.378906 -13.472656 113.359375 -21.179688 114.109375 -31.953125 L 114.859375 -41.921875 L 116.734375 -41.921875 L 115.234375 0 Z M 5.265625 0 "/></g></g></g><g fill="#db0404" fill-opacity="1"><g transform="translate(304.992105, 270.849691)"><g/></g></g><g fill="#db0404" fill-opacity="1"><g transform="translate(347.288308, 270.849691)"><g><path d="M 5.265625 0 L 5.265625 -1.875 L 13.15625 -1.875 C 15.914062 -1.875 18.203125 -2.5625 20.015625 -3.9375 C 21.835938 -5.320312 22.75 -8.707031 22.75 -14.09375 L 22.75 -120.125 C 22.75 -125.507812 21.835938 -128.890625 20.015625 -130.265625 C 18.203125 -131.648438 15.914062 -132.34375 13.15625 -132.34375 L 5.265625 -132.34375 L 5.265625 -134.21875 L 70.125 -134.21875 L 70.125 -132.34375 L 62.21875 -132.34375 C 59.59375 -132.34375 57.335938 -131.679688 55.453125 -130.359375 C 53.578125 -129.046875 52.640625 -125.882812 52.640625 -120.875 L 52.640625 -1.875 L 80.265625 -1.875 C 91.671875 -1.875 99.972656 -4.191406 105.171875 -8.828125 C 110.378906 -13.472656 113.359375 -21.179688 114.109375 -31.953125 L 114.859375 -41.921875 L 116.734375 -41.921875 L 115.234375 0 Z M 5.265625 0 "/></g></g></g><g fill="#db0404" fill-opacity="1"><g transform="translate(470.229187, 270.849691)"><g><path d="M 74.0625 1.875 C 59.78125 1.875 47.9375 -1.003906 38.53125 -6.765625 C 29.132812 -12.535156 22.085938 -20.617188 17.390625 -31.015625 C 12.691406 -41.421875 10.34375 -53.578125 10.34375 -67.484375 C 10.34375 -81.398438 12.691406 -93.492188 17.390625 -103.765625 C 22.085938 -114.046875 29.132812 -122.035156 38.53125 -127.734375 C 47.9375 -133.429688 59.84375 -136.28125 74.25 -136.28125 C 87.789062 -136.28125 99.289062 -133.429688 108.75 -127.734375 C 118.207031 -122.035156 125.378906 -114.015625 130.265625 -103.671875 C 135.160156 -93.335938 137.609375 -81.210938 137.609375 -67.296875 C 137.609375 -53.390625 135.128906 -41.265625 130.171875 -30.921875 C 125.222656 -20.585938 118.019531 -12.535156 108.5625 -6.765625 C 99.101562 -1.003906 87.601562 1.875 74.0625 1.875 Z M 74.0625 0 C 85.21875 0 93.332031 -5.320312 98.40625 -15.96875 C 103.476562 -26.625 106.015625 -43.734375 106.015625 -67.296875 C 106.015625 -90.859375 103.507812 -107.929688 98.5 -118.515625 C 93.488281 -129.109375 85.40625 -134.40625 74.25 -134.40625 C 62.96875 -134.40625 54.757812 -129.109375 49.625 -118.515625 C 44.488281 -107.929688 41.921875 -90.859375 41.921875 -67.296875 C 41.921875 -43.734375 44.457031 -26.625 49.53125 -15.96875 C 54.601562 -5.320312 62.78125 0 74.0625 0 Z M 74.0625 0 "/></g></g></g><g fill="#db0404" fill-opacity="1"><g transform="translate(618.171802, 270.849691)"><g><path d="M 1.875 0 L 1.875 -1.875 L 5.828125 -1.875 C 9.960938 -1.875 13.5 -2.84375 16.4375 -4.78125 C 19.382812 -6.726562 22.675781 -10.273438 26.3125 -15.421875 L 59.03125 -60.90625 L 21.8125 -122.375 C 19.550781 -126.132812 17.289062 -128.734375 15.03125 -130.171875 C 12.78125 -131.617188 9.835938 -132.34375 6.203125 -132.34375 L 5.828125 -132.34375 L 5.828125 -134.21875 L 68.046875 -134.21875 L 68.046875 -132.34375 L 64.109375 -132.34375 C 59.710938 -132.34375 56.765625 -131.804688 55.265625 -130.734375 C 53.765625 -129.671875 53.015625 -128.390625 53.015625 -126.890625 C 53.015625 -125.515625 53.515625 -123.851562 54.515625 -121.90625 C 55.515625 -119.96875 56.644531 -117.929688 57.90625 -115.796875 L 79.140625 -80.453125 L 104.328125 -115.421875 C 107.960938 -120.554688 109.78125 -124.378906 109.78125 -126.890625 C 109.78125 -130.523438 105.519531 -132.34375 97 -132.34375 L 90.046875 -132.34375 L 90.046875 -134.21875 L 132.15625 -134.21875 L 132.15625 -132.34375 L 129.703125 -132.34375 C 125.566406 -132.34375 122.023438 -131.398438 119.078125 -129.515625 C 116.140625 -127.640625 112.851562 -124.132812 109.21875 -119 L 80.265625 -78.765625 L 114.859375 -21.625 C 118.242188 -16.101562 121 -11.929688 123.125 -9.109375 C 125.257812 -6.296875 127.265625 -4.382812 129.140625 -3.375 C 131.023438 -2.375 133.09375 -1.875 135.34375 -1.875 L 135.71875 -1.875 L 135.71875 0 L 73.6875 0 L 73.6875 -1.875 L 78.015625 -1.875 C 85.535156 -1.875 89.296875 -3.941406 89.296875 -8.078125 C 89.296875 -9.460938 88.882812 -10.96875 88.0625 -12.59375 C 87.25 -14.21875 85.59375 -17.035156 83.09375 -21.046875 L 60.15625 -59.03125 L 31.203125 -18.796875 C 27.566406 -13.660156 25.75 -9.835938 25.75 -7.328125 C 25.75 -3.691406 30.007812 -1.875 38.53125 -1.875 L 46.8125 -1.875 L 46.8125 0 Z M 1.875 0 "/></g></g></g></svg>